<mxfile host="app.diagrams.net" modified="2024-03-22T06:46:23.345Z" agent="Mozilla/5.0 (Windows NT 10.0; Win64; x64) AppleWebKit/537.36 (KHTML, like Gecko) Chrome/119.0.0.0 Safari/537.36" version="24.0.7" etag="1u7Ue1dVo8cOeYzHzI2z" type="github">
  <diagram name="第 1 页" id="-Ih_glrhFTpAaPXFwjrE">
    <mxGraphModel>
      <root>
        <mxCell id="0" />
        <mxCell id="1" parent="0" />
      </root>
    </mxGraphModel>
  </diagram>
</mxfile>
